<svg width="24" height="23" viewBox="0 0 24 23" fill="none" xmlns="http://www.w3.org/2000/svg">
<path d="M15.6795 6.43984H17.5195C17.7729 6.43984 17.9795 6.2332 17.9795 5.97984V2.29984C17.9795 2.04648 17.7729 1.83984 17.5195 1.83984H14.7595C11.9699 1.83984 9.69953 4.1102 9.69953 6.89984V9.23664H6.47953C6.22616 9.23664 6.01953 9.44329 6.01953 9.69664V13.3398C6.01953 13.5932 6.22617 13.7998 6.47953 13.7998H9.3796V20.6998C9.3796 20.9532 9.58624 21.1598 9.8396 21.1598H13.6804C13.9337 21.1598 14.1404 20.9532 14.1404 20.6998V13.7998H16.56C16.7693 13.7998 16.9535 13.6597 17.0065 13.4548L17.966 9.77484C18.0029 9.63649 17.9732 9.49004 17.8852 9.37683C17.798 9.26453 17.6642 9.19714 17.5222 9.19714H14.3022V7.81714C14.3022 7.05616 14.9212 6.43714 15.6822 6.43714L15.6795 6.43984Z" fill="white"/>
</svg>
