<svg width="23" height="23" viewBox="0 0 23 23" fill="none" xmlns="http://www.w3.org/2000/svg">
<path d="M17.25 1.43726H5.75C3.3718 1.43726 1.4375 3.3716 1.4375 5.74976V17.2498C1.4375 19.628 3.37185 21.5623 5.75 21.5623H17.25C19.6282 21.5623 21.5625 19.6279 21.5625 17.2498V5.74976C21.5625 3.37156 19.6282 1.43726 17.25 1.43726ZM20.125 17.2498C20.125 18.8355 18.8357 20.1248 17.25 20.1248H5.75C4.16427 20.1248 2.875 18.8355 2.875 17.2498V5.74976C2.875 4.16402 4.16427 2.87476 5.75 2.87476H17.25C18.8357 2.87476 20.125 4.16402 20.125 5.74976V17.2498ZM11.5 5.74976C8.32945 5.74976 5.75 8.32921 5.75 11.4998C5.75 14.6703 8.32945 17.2498 11.5 17.2498C14.6706 17.2498 17.25 14.6703 17.25 11.4998C17.25 8.32921 14.6706 5.74976 11.5 5.74976ZM11.5 15.8123C9.1218 15.8123 7.1875 13.8779 7.1875 11.4998C7.1875 9.1216 9.12185 7.18726 11.5 7.18726C13.8782 7.18726 15.8125 9.1216 15.8125 11.4998C15.8125 13.8779 13.8782 15.8123 11.5 15.8123ZM17.7604 5.23939C17.8897 5.37595 17.9688 5.56281 17.9688 5.74971C17.9688 5.93661 17.8897 6.12346 17.7604 6.26003C17.6238 6.38941 17.4369 6.46847 17.25 6.46847C17.0631 6.46847 16.8763 6.38941 16.7397 6.26003C16.6103 6.12347 16.5313 5.93661 16.5313 5.74971C16.5313 5.56281 16.6103 5.37596 16.7397 5.23939C17.0056 4.98064 17.4872 4.97346 17.7604 5.23939Z" fill="white"/>
</svg>
