<svg width="144" height="36" viewBox="0 0 144 36" fill="none" xmlns="http://www.w3.org/2000/svg">
<path d="M111.555 16.9012H115.293V31.2002H111.555V16.9012Z" fill="#E9030F"/>
<path d="M106.048 20.9861H109.725V31.1997H106.048V30.0966C105.272 30.9954 104.21 31.4652 102.923 31.4652C100.288 31.4652 98.2656 29.1365 98.2656 26.0929C98.2656 23.0697 100.288 20.7206 102.923 20.7206C104.21 20.7206 105.293 21.17 106.048 22.0892V20.9861ZM101.983 26.0929C101.983 27.2164 102.923 28.1356 104.067 28.1356C105.211 28.1356 106.15 27.2164 106.15 26.0929C106.15 24.9694 105.211 24.0502 104.067 24.0502C102.923 24.0502 101.983 24.9694 101.983 26.0929Z" fill="#E9030F"/>
<path d="M91.6733 18.0655H95.391V20.9866H97.781V23.9893H95.391V26.747C95.391 27.7683 95.8404 28.1565 96.6779 28.1565C97.0456 28.1565 97.4542 28.0339 97.781 27.8501V30.9958C97.2907 31.2409 96.5145 31.4656 95.3706 31.4656C93.1032 31.4656 91.6733 30.0562 91.6733 27.6254V23.9893H90.3047V20.9866H91.6733V18.0655Z" fill="#E9030F"/>
<path d="M89.3496 31.1995H85.6114V20.986H89.3496V31.1995ZM89.5743 18.1057C89.5743 19.2088 88.655 20.1689 87.4703 20.1689C86.3264 20.1689 85.3867 19.2292 85.3867 18.1057C85.3867 16.9822 86.3264 16.0426 87.4703 16.0426C88.655 16.0426 89.5743 17.0027 89.5743 18.1057Z" fill="#E9030F"/>
<path d="M80.0799 29.8923C79.4671 30.6073 78.3845 31.118 77.118 31.118C74.3603 31.118 72.3789 28.9527 72.3789 25.9908C72.3789 22.9676 74.3808 20.7206 77.118 20.7206C78.4253 20.7206 79.4671 21.2517 80.0799 22.0688V20.9861H83.7568V30.5051C83.7568 33.6713 81.6937 36 77.7921 36C75.2387 36 73.2981 34.9174 72.5423 33.2424L75.5247 31.5878C75.9741 32.4049 76.8116 32.936 77.8125 32.936C79.2628 32.936 80.0799 32.0576 80.0799 30.4643V29.8923ZM80.182 25.9908C80.182 24.8673 79.2424 23.9889 78.1598 23.9889C77.0771 23.9889 76.1375 24.8673 76.1375 25.9908C76.1375 27.1143 77.0771 27.9926 78.1598 27.9926C79.2424 27.9926 80.182 27.1143 80.182 25.9908Z" fill="#E9030F"/>
<path d="M71.0722 31.1995H67.3341V20.986H71.0722V31.1995ZM71.2969 18.1057C71.2969 19.2088 70.3777 20.1689 69.1929 20.1689C68.049 20.1689 67.1094 19.2292 67.1094 18.1057C67.1094 16.9822 68.049 16.0426 69.1929 16.0426C70.3777 16.0426 71.2969 17.0027 71.2969 18.1057Z" fill="#E9030F"/>
<path d="M65.904 24.0507C65.904 28.034 62.554 31.2002 58.5094 31.2002H53.4844V16.9012H58.5094C62.554 16.9012 65.904 20.0674 65.904 24.0507ZM61.9616 24.0507C61.9616 22.0897 60.3887 20.4964 58.4277 20.4964H57.3247V27.605H58.4277C60.3887 27.605 61.9616 26.0117 61.9616 24.0507Z" fill="#E9030F"/>
<path d="M140.208 4.93813H143.881V15.141H140.208V14.039C139.433 14.9369 138.372 15.4062 137.086 15.4062C134.454 15.4062 132.434 13.08 132.434 10.0395C132.434 7.0195 134.454 4.67285 137.086 4.67285C138.372 4.67285 139.453 5.12178 140.208 6.04003V4.93813ZM136.147 10.0395C136.147 11.1618 137.086 12.0801 138.229 12.0801C139.372 12.0801 140.31 11.1618 140.31 10.0395C140.31 8.91723 139.372 7.99897 138.229 7.99897C137.086 7.99897 136.147 8.91723 136.147 10.0395Z" fill="#E9030F"/>
<path d="M131.131 15.141H127.396V4.93817H131.131V15.141ZM131.355 2.06097C131.355 3.16288 130.437 4.12194 129.253 4.12194C128.111 4.12194 127.172 3.18328 127.172 2.06097C127.172 0.93866 128.111 0 129.253 0C130.437 0 131.355 0.959065 131.355 2.06097Z" fill="#E9030F"/>
<path d="M126.294 4.77529V8.61155C126.029 8.50952 125.702 8.46871 125.396 8.46871C123.845 8.46871 122.968 9.52981 122.968 11.4275V15.1414H119.254V4.93853H122.947V6.55058C123.498 5.36705 124.437 4.69366 125.743 4.69366C125.967 4.69366 126.192 4.73448 126.294 4.77529Z" fill="#E9030F"/>
<path d="M114.536 11.5497L117.74 12.672C116.903 14.4269 115.169 15.4268 112.863 15.4268C109.578 15.4268 107.312 13.2434 107.312 10.0397C107.312 6.95846 109.659 4.65262 112.74 4.65262C115.924 4.65262 118.066 6.85643 118.066 10.2234C118.066 10.5499 118.046 10.7947 118.025 10.9784H110.965C111.047 11.8558 111.863 12.4476 112.842 12.4476C113.659 12.4476 114.148 12.1619 114.536 11.5497ZM110.986 8.83578H114.454C114.373 8.06036 113.679 7.50941 112.72 7.50941C111.781 7.50941 111.067 8.08077 110.986 8.83578Z" fill="#E9030F"/>
<path d="M100.73 2.02032H104.444V4.93833H106.832V7.93796H104.444V10.6927C104.444 11.713 104.893 12.1007 105.73 12.1007C106.097 12.1007 106.505 11.9783 106.832 11.7946V14.9371C106.342 15.182 105.567 15.4064 104.424 15.4064C102.159 15.4064 100.73 13.9984 100.73 11.5702V7.93796H99.3633V4.93833H100.73V2.02032Z" fill="#E9030F"/>
<path d="M95.7431 11.5494L98.9468 12.6717C98.1102 14.4266 96.3757 15.4265 94.0699 15.4265C90.7846 15.4265 88.5195 13.2431 88.5195 10.0394C88.5195 6.95815 90.8662 4.65231 93.9474 4.65231C97.1307 4.65231 99.2733 6.85612 99.2733 10.2231C99.2733 10.5495 99.2529 10.7944 99.2325 10.9781H92.1721C92.2538 11.8555 93.07 12.4473 94.0495 12.4473C94.8657 12.4473 95.3554 12.1616 95.7431 11.5494ZM92.1926 8.83547H95.6615C95.5799 8.06006 94.8861 7.5091 93.927 7.5091C92.9884 7.5091 92.2742 8.08046 92.1926 8.83547Z" fill="#E9030F"/>
<path d="M80.9374 9.71296V15.1409H77.2031V0.856903H80.9374V6.18278C81.5087 5.1829 82.529 4.65236 83.7737 4.65236C85.9571 4.65236 87.3243 6.18278 87.3243 8.65186V15.1409H83.5901V9.61093C83.5901 8.63146 83.1004 8.0601 82.3045 8.0601C81.4679 8.0601 80.9374 8.69267 80.9374 9.71296Z" fill="#E9030F"/>
<path d="M71.6367 0.856903H75.371V15.1409H71.6367V0.856903Z" fill="#E9030F"/>
<path d="M69.779 15.141H66.0448V4.93817H69.779V15.141ZM70.0035 2.06097C70.0035 3.16288 69.0852 4.12194 67.9017 4.12194C66.759 4.12194 65.8203 3.18328 65.8203 2.06097C65.8203 0.93866 66.759 0 67.9017 0C69.0852 0 70.0035 0.959065 70.0035 2.06097Z" fill="#E9030F"/>
<path d="M53.4844 15.1409V0.856903H59.1776C61.8099 0.856903 63.7484 2.2853 63.7484 4.75438C63.7484 5.97872 63.0954 6.95819 62.1364 7.48874C63.7484 8.0601 64.6259 9.26403 64.6259 10.8965C64.6259 13.5288 62.6465 15.1409 59.402 15.1409H53.4844ZM57.1982 11.978H59.1571C60.0958 11.978 60.7488 11.5495 60.7488 10.6516C60.7488 9.75377 60.0958 9.32525 59.1571 9.32525H57.1982V11.978ZM57.1982 6.30521H58.7286C59.4632 6.30521 60.0346 5.93791 60.0346 5.14209C60.0346 4.34627 59.4632 3.97897 58.7286 3.97897H57.1982V6.30521Z" fill="#E9030F"/>
<path fill-rule="evenodd" clip-rule="evenodd" d="M0 1.30485C-7.55925e-07 1.02804 0.224402 0.8107 0.501217 0.8107L18.4013 0.810699C19.9238 0.810699 21.158 2.04494 21.158 3.56742C21.158 6.51918 21.158 9.43083 21.158 12.3826C21.158 13.9051 19.9238 15.1393 18.4013 15.1393H6.32919C5.8391 15.1393 5.4418 15.5366 5.4418 16.0267C5.4418 16.5168 5.8391 16.9141 6.32919 16.9141H18.4141C19.9316 16.9141 21.164 18.1405 21.1683 19.658C21.1767 22.5887 21.1764 25.4795 21.1681 28.4102C21.1638 29.9279 19.9337 31.1969 18.416 31.1986C11.9449 31.2056 2.71504 31.1919 0.494215 31.1986C0.216794 31.1994 6.62433e-07 30.9744 1.02384e-06 30.697C5.09388e-06 27.5727 2.54149e-05 10.6116 0 1.30485Z" fill="#E9030F"/>
<path d="M25.6716 16.9141C24.1491 16.9141 22.9149 18.1483 22.9149 19.6708C22.9149 23.3566 22.9149 26.9795 22.9149 30.6973C22.9149 30.9741 23.1392 31.1986 23.416 31.1986C25.7309 31.1986 28.2777 31.1986 30.5562 31.1986C39.0173 31.1986 45.8764 24.4059 45.8764 16.0266C45.8764 7.6474 39.0173 0.810699 30.5562 0.810699H23.4161C23.1393 0.810699 22.9149 1.07913 22.9149 1.35594C22.9149 5.07377 22.9149 8.69677 22.9149 12.3826C22.9149 13.9051 24.1491 15.1393 25.6716 15.1393C29.9498 15.1393 34.2279 15.1393 38.5061 15.1393C38.9962 15.1393 39.3935 15.5366 39.3935 16.0267C39.3935 16.5168 38.9962 16.9141 38.5061 16.9141H25.6716Z" fill="#E9030F"/>
</svg>
