<svg width="126" height="32" viewBox="0 0 126 32" fill="none" xmlns="http://www.w3.org/2000/svg">
<path d="M97.6924 14.8013H100.966V27.3235H97.6924V14.8013Z" fill="white"/>
<path d="M92.8694 18.3786H96.0894V27.323H92.8694V26.357C92.1896 27.1441 91.2594 27.5556 90.1324 27.5556C87.8247 27.5556 86.0537 25.5163 86.0537 22.8508C86.0537 20.2032 87.8247 18.146 90.1324 18.146C91.2594 18.146 92.2075 18.5396 92.8694 19.3446V18.3786ZM89.3095 22.8508C89.3095 23.8347 90.1324 24.6397 91.1342 24.6397C92.136 24.6397 92.9589 23.8347 92.9589 22.8508C92.9589 21.8669 92.136 21.0619 91.1342 21.0619C90.1324 21.0619 89.3095 21.8669 89.3095 22.8508Z" fill="white"/>
<path d="M80.2835 15.8208H83.5393V18.3789H85.6323V21.0086H83.5393V23.4236C83.5393 24.3181 83.9329 24.658 84.6663 24.658C84.9883 24.658 85.3461 24.5506 85.6323 24.3896V27.1445C85.203 27.3592 84.5232 27.556 83.5214 27.556C81.5358 27.556 80.2835 26.3216 80.2835 24.1928V21.0086H79.085V18.3789H80.2835V15.8208Z" fill="white"/>
<path d="M78.2458 27.3229H74.9722V18.3784H78.2458V27.3229ZM78.4426 15.8561C78.4426 16.8221 77.6376 17.6629 76.6001 17.6629C75.5983 17.6629 74.7754 16.84 74.7754 15.8561C74.7754 14.8722 75.5983 14.0493 76.6001 14.0493C77.6376 14.0493 78.4426 14.8901 78.4426 15.8561Z" fill="white"/>
<path d="M70.1299 26.1781C69.5932 26.8043 68.6451 27.2515 67.536 27.2515C65.121 27.2515 63.3857 25.3553 63.3857 22.7614C63.3857 20.1138 65.1389 18.146 67.536 18.146C68.6809 18.146 69.5932 18.6111 70.1299 19.3267V18.3786H73.3499V26.7148C73.3499 29.4876 71.5431 31.5269 68.1263 31.5269C65.8902 31.5269 64.1907 30.5788 63.5289 29.1119L66.1406 27.6629C66.5342 28.3785 67.2676 28.8436 68.1442 28.8436C69.4143 28.8436 70.1299 28.0744 70.1299 26.679V26.1781ZM70.2193 22.7614C70.2193 21.7775 69.3964 21.0082 68.4483 21.0082C67.5002 21.0082 66.6773 21.7775 66.6773 22.7614C66.6773 23.7452 67.5002 24.5145 68.4483 24.5145C69.3964 24.5145 70.2193 23.7452 70.2193 22.7614Z" fill="white"/>
<path d="M62.2419 27.3229H58.9683V18.3784H62.2419V27.3229ZM62.4387 15.8561C62.4387 16.8221 61.6337 17.6629 60.5962 17.6629C59.5944 17.6629 58.7715 16.84 58.7715 15.8561C58.7715 14.8722 59.5944 14.0493 60.5962 14.0493C61.6337 14.0493 62.4387 14.8901 62.4387 15.8561Z" fill="white"/>
<path d="M57.7154 21.0624C57.7154 24.5508 54.7816 27.3235 51.2396 27.3235H46.8389V14.8013H51.2396C54.7816 14.8013 57.7154 17.5741 57.7154 21.0624ZM54.2628 21.0624C54.2628 19.3451 52.8853 17.9497 51.168 17.9497H50.202V24.1751H51.168C52.8853 24.1751 54.2628 22.7798 54.2628 21.0624Z" fill="white"/>
<path d="M122.786 4.3246H126.003V13.2597H122.786V12.2947C122.107 13.081 121.178 13.492 120.052 13.492C117.747 13.492 115.978 11.4548 115.978 8.79215C115.978 6.14736 117.747 4.09229 120.052 4.09229C121.178 4.09229 122.125 4.48543 122.786 5.28959V4.3246ZM119.23 8.79215C119.23 9.77501 120.052 10.5792 121.053 10.5792C122.053 10.5792 122.875 9.77501 122.875 8.79215C122.875 7.80929 122.053 7.00513 121.053 7.00513C120.052 7.00513 119.23 7.80929 119.23 8.79215Z" fill="white"/>
<path d="M114.835 13.2597H111.565V4.32459H114.835V13.2597ZM115.032 1.80489C115.032 2.76988 114.227 3.60978 113.191 3.60978C112.19 3.60978 111.368 2.78775 111.368 1.80489C111.368 0.82203 112.19 0 113.191 0C114.227 0 115.032 0.8399 115.032 1.80489Z" fill="white"/>
<path d="M110.601 4.18183V7.54143C110.368 7.45208 110.083 7.41634 109.814 7.41634C108.456 7.41634 107.688 8.34559 107.688 10.0075V13.2599H104.436V4.32479H107.67V5.73654C108.153 4.70007 108.975 4.11035 110.118 4.11035C110.315 4.11035 110.511 4.14609 110.601 4.18183Z" fill="white"/>
<path d="M100.305 10.1146L103.11 11.0975C102.378 12.6343 100.859 13.5099 98.8392 13.5099C95.9621 13.5099 93.9785 11.5978 93.9785 8.7922C93.9785 6.0938 96.0336 4.07446 98.732 4.07446C101.52 4.07446 103.396 6.00445 103.396 8.95303C103.396 9.23896 103.378 9.4534 103.36 9.61423H97.1773C97.2488 10.3826 97.9636 10.9009 98.8213 10.9009C99.5362 10.9009 99.965 10.6507 100.305 10.1146ZM97.1952 7.73786H100.233C100.162 7.05879 99.554 6.57629 98.7141 6.57629C97.8921 6.57629 97.2666 7.07666 97.1952 7.73786Z" fill="white"/>
<path d="M88.2139 1.76929H91.4663V4.32473H93.5571V6.95165H91.4663V9.36413C91.4663 10.2576 91.8594 10.5972 92.5921 10.5972C92.9138 10.5972 93.2712 10.49 93.5571 10.3291V13.0811C93.1282 13.2956 92.4491 13.4922 91.4484 13.4922C89.4648 13.4922 88.2139 12.2591 88.2139 10.1325V6.95165H87.0166V4.32473H88.2139V1.76929Z" fill="white"/>
<path d="M83.8475 10.1144L86.6532 11.0972C85.9205 12.6341 84.4015 13.5097 82.3822 13.5097C79.5051 13.5097 77.5215 11.5976 77.5215 8.79196C77.5215 6.09355 79.5766 4.07422 82.275 4.07422C85.0627 4.07422 86.9391 6.0042 86.9391 8.95279C86.9391 9.23871 86.9212 9.45315 86.9034 9.61399H80.7203C80.7917 10.3824 81.5065 10.9006 82.3643 10.9006C83.0791 10.9006 83.508 10.6505 83.8475 10.1144ZM80.7381 7.73761H83.7761C83.7046 7.05855 83.097 6.57605 82.2571 6.57605C81.4351 6.57605 80.8096 7.07642 80.7381 7.73761Z" fill="white"/>
<path d="M70.8816 8.50616V13.2596H67.6113V0.750488H70.8816V5.41462C71.3819 4.53898 72.2755 4.07435 73.3655 4.07435C75.2777 4.07435 76.475 5.41462 76.475 7.57691V13.2596H73.2047V8.41681C73.2047 7.55904 72.7758 7.05868 72.0789 7.05868C71.3462 7.05868 70.8816 7.61265 70.8816 8.50616Z" fill="white"/>
<path d="M62.7334 0.750488H66.0036V13.2596H62.7334V0.750488Z" fill="white"/>
<path d="M61.1084 13.2597H57.8382V4.32459H61.1084V13.2597ZM61.305 1.80489C61.305 2.76988 60.5008 3.60978 59.4644 3.60978C58.4636 3.60978 57.6416 2.78775 57.6416 1.80489C57.6416 0.82203 58.4636 0 59.4644 0C60.5008 0 61.305 0.8399 61.305 1.80489Z" fill="white"/>
<path d="M46.8379 13.2596V0.750488H51.8237C54.1289 0.750488 55.8266 2.0014 55.8266 4.1637C55.8266 5.23591 55.2548 6.09368 54.4149 6.55831C55.8266 7.05868 56.595 8.11302 56.595 9.54264C56.595 11.8479 54.8616 13.2596 52.0203 13.2596H46.8379ZM50.0903 10.4898H51.8058C52.6278 10.4898 53.1997 10.1145 53.1997 9.32819C53.1997 8.5419 52.6278 8.16663 51.8058 8.16663H50.0903V10.4898ZM50.0903 5.52184H51.4305C52.0739 5.52184 52.5742 5.20017 52.5742 4.50324C52.5742 3.8063 52.0739 3.48463 51.4305 3.48463H50.0903V5.52184Z" fill="white"/>
<path fill-rule="evenodd" clip-rule="evenodd" d="M0 1.14272C-6.62e-07 0.900296 0.19652 0.709961 0.43894 0.709961L16.1149 0.709961C17.4483 0.709961 18.5291 1.79085 18.5291 3.12416C18.5291 5.70915 18.5291 8.25903 18.5291 10.844C18.5291 12.1773 17.4483 13.2582 16.1149 13.2582H5.54278C5.11358 13.2582 4.76565 13.6061 4.76565 14.0353C4.76565 14.4645 5.11358 14.8125 5.54278 14.8125H16.1261C17.4551 14.8125 18.5343 15.8865 18.5381 17.2155C18.5454 19.782 18.5452 22.3136 18.5379 24.8802C18.5341 26.2093 17.4569 27.3207 16.1278 27.3221C10.4607 27.3283 2.3777 27.3162 0.432808 27.3221C0.189857 27.3228 5.80124e-07 27.1258 8.96624e-07 26.8828C4.46096e-06 24.1468 2.2257e-05 9.29307 0 1.14272Z" fill="white"/>
<path d="M22.4819 14.8125C21.1486 14.8125 20.0677 15.8934 20.0677 17.2267C20.0677 20.4545 20.0677 23.6273 20.0677 26.8831C20.0677 27.1255 20.2641 27.3221 20.5065 27.3221C22.5338 27.3221 24.7641 27.3221 26.7596 27.3221C34.1694 27.3221 40.1762 21.3734 40.1762 14.0353C40.1762 6.69719 34.1694 0.709961 26.7596 0.709961H20.5066C20.2642 0.709961 20.0677 0.945037 20.0677 1.18746C20.0677 4.44334 20.0677 7.61618 20.0677 10.844C20.0677 12.1773 21.1486 13.2582 22.4819 13.2582C26.2285 13.2582 29.975 13.2582 33.7216 13.2582C34.1508 13.2582 34.4988 13.6061 34.4988 14.0353C34.4988 14.4645 34.1508 14.8125 33.7216 14.8125H22.4819Z" fill="white"/>
</svg>
